<?xml version="1.0" encoding="UTF-8" standalone="no"?>
<!-- Created with Inkscape (http://www.inkscape.org/) -->

<svg
   width="1080"
   height="1080"
   viewBox="0 0 285.74999 285.75"
   version="1.1"
   id="svg78963"
   xml:space="preserve"
   inkscape:version="1.3 (0e150ed6c4, 2023-07-21)"
   sodipodi:docname="skyexpertsco.svg"
   inkscape:export-filename="skyx .png"
   inkscape:export-xdpi="150"
   inkscape:export-ydpi="150"
   xmlns:inkscape="http://www.inkscape.org/namespaces/inkscape"
   xmlns:sodipodi="http://sodipodi.sourceforge.net/DTD/sodipodi-0.dtd"
   xmlns="http://www.w3.org/2000/svg"
   xmlns:svg="http://www.w3.org/2000/svg"><sodipodi:namedview
     id="namedview78965"
     pagecolor="#7e7e7e"
     bordercolor="#ffffff"
     borderopacity="0.24705882"
     inkscape:showpageshadow="false"
     inkscape:pageopacity="0"
     inkscape:pagecheckerboard="false"
     inkscape:deskcolor="#656565"
     inkscape:document-units="mm"
     showgrid="false"
     showborder="true"
     shape-rendering="auto"
     showguides="true"
     inkscape:zoom="0.48580859"
     inkscape:cx="64.840352"
     inkscape:cy="554.74523"
     inkscape:window-width="1920"
     inkscape:window-height="991"
     inkscape:window-x="-9"
     inkscape:window-y="-9"
     inkscape:window-maximized="1"
     inkscape:current-layer="layer1-2"><sodipodi:guide
       position="-891.37384,44.357082"
       orientation="1,0"
       id="guide93582"
       inkscape:locked="false" /><sodipodi:guide
       position="-878.47258,14.308781"
       orientation="0,-1"
       id="guide93584"
       inkscape:locked="false" /><sodipodi:guide
       position="-645.64117,209.36808"
       orientation="1,0"
       id="guide93752"
       inkscape:locked="false" /><inkscape:page
       x="0"
       y="0"
       width="285.75"
       height="285.75"
       id="page4"
       margin="0"
       bleed="0" /></sodipodi:namedview><defs
     id="defs78960"><linearGradient
       id="linearGradient33324"
       inkscape:swatch="solid"><stop
         style="stop-color:#e7e7e7;stop-opacity:1;"
         offset="0"
         id="stop33322" /></linearGradient></defs><g
     inkscape:label="Layer 1"
     inkscape:groupmode="layer"
     id="layer1-2"
     style="display:inline"
     transform="matrix(0.26458333,0,0,0.26458333,-11.176715,415.05389)"><path
       id="path59665-9"
       style="display:inline;fill:#ffffff;fill-opacity:1;fill-rule:nonzero;stroke:none;stroke-width:10.5793"
       d="m 278.54588,-813.72551 -35.92941,22.48772 0.13488,7.72098 c 0,0.16662 0.0794,0.34118 0.14282,0.49193 l 6.92437,10.71543 15.32135,-9.58716 c 1.27427,-0.79661 2.92383,-0.41259 3.7141,0.85295 l 4.89871,7.82968 c 0.79344,1.25523 0.41259,2.91749 -0.85375,3.69506 l -15.14838,9.49194 0.6903,1.06401 c 0.2777,0.44432 0.15868,1.0513 -0.28564,1.34408 l -0.57922,0.40466 c -0.46813,0.32531 -1.09574,0.18249 -1.40201,-0.28564 l -0.69823,-1.10209 -16.2957,10.19334 c -0.79344,0.50781 -1.84078,0.26977 -2.33827,-0.5316 l -5.42714,-8.67628 c -0.77757,-1.26158 -0.40465,-2.92384 0.85375,-3.70141 l 15.35864,-9.60699 -6.73314,-10.57499 c -0.2539,-0.37291 -0.58715,-0.69822 -1.00053,-0.89817 l -5.80323,-2.8794 c -0.18249,-0.0873 -0.34118,-0.19043 -0.49987,-0.30944 l -36.22933,22.67259 c -2.31209,1.45199 -5.37001,0.74583 -6.8228,-1.56705 l -7.0775,-11.33987 c -1.45279,-2.31843 -0.7617,-5.37635 1.55435,-6.8101 l 34.93602,-21.86328 -0.33324,-0.4602 c -0.11109,-0.14282 -0.17456,-0.34118 -0.1825,-0.5316 l -1.06956,-11.75325 c -0.11108,-1.28062 1.3314,-2.09627 2.37557,-1.34409 l 8.42238,6.14758 c 0.14282,0.11902 0.2777,0.24597 0.38085,0.41259 l 0.6903,1.08305 35.96828,-22.50121 c 1.85983,-1.16556 4.29966,-0.59508 5.45333,1.26158 l 8.1415,13.00847 c 1.16556,1.86062 0.59508,4.2941 -1.24888,5.44697 m 303.69051,208.43548 c -111.00564,0 -215.9216,-42.6443 -295.41888,-120.08419 l 4.82888,-4.96297 c 78.20397,76.17196 181.39976,118.12201 290.59,118.12201 229.65686,0 416.49724,-186.83404 416.49724,-416.49001 0,-229.6569 -186.84038,-416.4972 -416.49724,-416.4972 -229.65607,0 -416.49011,186.8403 -416.49011,416.4972 0,58.57016 11.91273,115.19093 35.40732,168.30787 l -6.33245,2.80323 c -23.88973,-54.00877 -36.00003,-111.57929 -36.00003,-171.1111 0,-113.1019 44.03918,-219.4254 124.0149,-299.4012 79.97493,-79.9749 186.30481,-124.0204 299.40037,-124.0204 113.1019,0 219.42543,44.0455 299.40116,124.0204 79.97493,79.9758 124.02048,186.2993 124.02048,299.4012 0,113.10101 -44.04555,219.42534 -124.02048,299.40027 -79.97573,79.97493 -186.29926,124.01489 -299.40116,124.01489 M 397.13681,-914.60127 c 19.77415,-4.73923 51.1492,-8.75246 79.68294,4.7781 14.94447,7.09019 18.08571,13.76066 19.12353,17.53188 3.34515,12.16108 -6.09601,27.17617 -18.32771,32.66757 -12.74108,5.72072 -25.71781,-0.13488 -34.26714,-3.98149 -27.97913,-12.61968 -41.17882,-38.98098 -46.21162,-50.99606 M 278.41179,-1083.5249 c -4.8027,2.332 3.61253,66.9919 50.99606,100.39895 63.78794,44.96978 155.06465,2.91828 154.57985,-0.79582 -0.42052,-3.24915 -70.78211,23.21361 -132.27065,-11.95161 -53.60729,-30.66732 -68.57794,-89.95092 -73.30526,-87.65152 m 15.93627,-158.5661 c -6.05872,-0.6585 -31.54723,55.9329 -11.95161,109.1649 20.56441,55.863 81.37694,82.479 85.25687,78.0897 3.29357,-3.7331 -36.23568,-27.8522 -58.16878,-82.0775 -22.97251,-56.8057 -9.61968,-104.5844 -15.13648,-105.1771 m 501.63907,120.3183 c -2.07644,-2.1217 14.009,-16.4996 32.5787,-47.4541 19.85667,-33.1072 24.2206,-54.6015 26.91512,-53.8303 3.39593,0.968 2.49776,36.853 -18.06031,66.9284 -15.86883,23.22 -39.15316,36.6816 -41.43351,34.356 m -14.87544,57.3714 c -1.29966,-3.0326 31.71226,-13.7662 71.89134,-47.8104 23.50729,-19.921 34.38141,-35.0249 36.12063,-33.6427 2.31288,1.828 -12.21185,32.0629 -40.01325,54.1872 -30.6673,24.3865 -66.68637,30.3238 -67.99872,27.2659 m -37.18384,47.4549 c -0.69823,-2.9746 22.88285,-7.7844 58.78687,-25.5004 27.80139,-13.7162 48.92598,-28.2473 62.67949,-38.6057 -7.8035,13.6773 -22.78685,35.0249 -48.86806,49.5877 -33.83393,18.8887 -71.73187,18.1881 -72.5983,14.5184 m 60.38327,8.3184 c -15.49353,45.83547 -44.79136,113.89767 -101.20187,182.4764 -42.03891,51.11668 -85.97017,86.50496 -120.31349,109.95512 -19.6464,-9.64508 -44.55491,-24.27217 -70.12039,-46.21797 -29.28513,-25.12591 -49.20527,-51.05954 -62.15027,-70.91065 19.37902,-0.20629 44.95005,-3.6054 69.32378,-18.3277 27.1706,-16.42345 39.66255,-38.9429 43.02674,-36.64906 3.67522,2.49061 -7.80429,31.744 -29.4827,55.77338 -14.59535,16.1743 -30.24757,26.02963 -41.4343,31.87174 3.96244,1.84079 22.69797,10.01403 44.61917,2.38906 18.0984,-6.29437 27.46974,-19.55754 30.27932,-23.90243 0.52367,2.49062 2.45887,13.21239 -3.98149,23.90243 -5.32003,8.82941 -13.21953,12.44751 -15.93945,13.54325 4.10289,1.64401 18.56336,6.85454 34.26715,0.79661 17.42318,-6.71489 29.35495,-24.60303 30.27217,-45.41579 2.28115,2.30653 5.81672,6.51733 7.97012,12.75378 3.55462,10.25047 1.03782,19.19493 0,22.30364 11.00821,-4.94394 30.25948,-13.21239 31.07514,-29.47635 1.33139,-26.55887 -5.16689,-32.62949 -11.155,-56.57635 -11.95081,-47.81119 7.59403,-64.46949 18.32771,-70.917 51.79268,-31.07503 79.64406,-47.89282 146.61766,-57.37211 m -493.22859,-183.2643 c 49.80432,-22.7297 134.22649,-53.6969 243.02794,-58.1688 121.00141,-4.9756 215.90256,25.1251 268.5228,46.218 -12.47925,65.6033 -51.25632,94.2894 -89.73426,118.4021 -44.09709,27.6284 -124.55602,48.6324 -105.48328,50.9318 10.62656,1.2806 30.14522,1.7646 38.50968,12.8688 3.25549,4.306 0.2539,9.753 6.23725,13.0148 10.20524,5.574 12.11029,9.72127 14.21847,14.07885 3.01983,6.23645 -38.00585,-2.10262 -61.62184,16.46788 -17.60171,13.83673 -22.30919,37.17819 -25.23303,30.80764 -5.94366,-12.97038 -0.9434,-54.93307 -35.05741,-74.89837 -55.40364,-32.4383 -86.766,-29.954 -151.39498,-54.181 -44.62473,-16.7352 -83.66998,-45.4213 -101.99134,-115.5417" /></g></svg>
